<?xml version="1.0" encoding="UTF-8"?>
<!DOCTYPE svg PUBLIC "-//W3C//DTD SVG 1.1//EN" "http://www.w3.org/Graphics/SVG/1.1/DTD/svg11.dtd">
<!-- Creator: CorelDRAW 2017 -->
<svg xmlns="http://www.w3.org/2000/svg" xml:space="preserve" width="7.87402in" height="7.87402in" version="1.1" style="shape-rendering:geometricPrecision; text-rendering:geometricPrecision; image-rendering:optimizeQuality; fill-rule:evenodd; clip-rule:evenodd"
viewBox="0 0 7874.02 7874.02"
 xmlns:xlink="http://www.w3.org/1999/xlink">
 <defs>
  <style type="text/css">
   <![CDATA[
    .fil1 {fill:#2B2A29;fill-rule:nonzero}
    .fil0 {fill:#3ABAA9;fill-rule:nonzero}
   ]]>
  </style>
 </defs>
 <g id="Layer_x0020_1">
  <metadata id="CorelCorpID_0Corel-Layer"/>
  <g id="_2285197797920">
   <path class="fil0" d="M3938.81 1570.46l0.19 -0.28 -0.19 -0.15 0 0.43zm-652.11 554.05l0.19 -0.28 -0.17 -0.15 -0.02 0.43zm-0.5 -0.94l-0.17 -0.17 -0.29 0.17 0.45 0zm-179.01 -180.02c46.07,-46.08 109.56,-74.59 179.52,-74.59 69.97,0 133.46,28.53 179.53,74.59l0.5 0c46.06,46.06 74.56,109.73 74.56,180.02 0,69.95 -28.5,133.44 -74.56,179.52l-0.5 0.5c-19.37,19.35 -41.82,35.61 -66.52,47.95l0 101.33 274.8 180.85 0 341.92 149.24 149.24 0 -1328.44c-23.89,-12.2 -45.64,-28.09 -64.46,-46.91l-0.5 -0.5c-46.06,-46.07 -74.56,-109.56 -74.56,-179.52 0,-69.95 28.5,-133.44 74.56,-179.53l0.5 -0.5c46.11,-46.06 109.6,-74.57 179.52,-74.57 69.95,0 133.44,28.51 179.52,74.57l0.5 0.5c46.08,46.09 74.61,109.58 74.61,179.53 0,69.95 -28.55,133.44 -74.61,179.52l-0.5 0.5c-19.59,19.61 -42.36,36.03 -67.44,48.42l0 1554.08 0.07 0.05 -0.07 0.05 0 1310.16 -1829.98 0 -470.77 -1756.9c-65.43,-2.91 -124.55,-30.76 -168.13,-74.32l-0.48 -0.5c-46.07,-46.07 -74.57,-109.56 -74.57,-179.52 0,-69.93 28.5,-133.44 74.57,-179.52l0.48 -0.5c46.09,-46.08 109.58,-74.59 179.54,-74.59 69.97,0 133.46,28.53 179.52,74.59l0.52 0.5c46.06,46.08 74.56,109.58 74.56,179.52 0,39.35 -8.99,76.65 -25.08,109.95l1000.31 1000.35 33.28 80.3 0 593.5 289.78 0 0 -786.12 -278.9 -278.89c-25.43,8.52 -52.61,13.14 -80.9,13.14 -69.95,0 -133.44,-28.51 -179.52,-74.59l-0.5 -0.5c-46.06,-46.07 -74.57,-109.58 -74.57,-179.52 0,-69.95 28.5,-133.44 74.57,-179.53l0.5 -0.48c46.08,-46.08 109.57,-74.59 179.52,-74.59 70.29,0 133.94,28.51 180.02,74.59l0 0.48c46.06,46.09 74.59,109.58 74.59,179.53 0,28.21 -4.64,55.35 -13.21,80.75l345.56 345.54 0 880.19 282.18 0 0 -989.05 -373.88 -373.87 -2.53 0 0 -317.26 -274.78 -180.86 0 -223.15c-24.26,-12.27 -46.33,-28.31 -65.38,-47.38l-0.5 -0.5c-46.06,-46.07 -74.59,-109.56 -74.59,-179.52 0,-70.28 28.53,-133.96 74.59,-180.02l0.5 0zm179.52 179.06l0 0.43 0.15 -0.15c0.17,0.17 -0.23,-0.28 -0.15,-0.28zm0.75 1.2c0.08,-0.19 0.19,-0.37 0.19,-0.25l-0.44 0 0.25 0.25zm0.19 -0.25l-0.28 -0.17 -0.15 0.17 0.44 0zm-1.11 0.65l0.17 0.28 0 -0.43 -0.17 0.15zm-0.79 -0.65l0.45 0 -0.27 0.25c-0.08,-0.19 -0.19,-0.37 -0.19,-0.25zm0.96 -0.95c0.08,0 -0.32,0.45 -0.17,0.28l0.17 0.15 0 -0.43zm651.48 -553.26l-0.3 0.17 0.43 0 -0.13 0.15 -0.3 -0.15 0.43 0 -0.13 -0.17zm0.64 -0.79l0 0.45 -0.15 -0.17 0.15 -0.28zm0.69 1.1l0.28 -0.15 -0.45 0 0.17 0.15zm-0.17 -0.15l0.17 -0.17 0.28 0.17 -0.45 0zm-0.52 0.5l-0.15 0.15 0.15 0.28 0 -0.43zm0.19 -1.17l-0.19 -0.28 0 0.45 0.19 -0.17zm-984.63 1560.58c0.2,0.1 0.37,0.18 0.25,0.18l0 -0.43 0.19 0.17 -0.19 0.27 0 -0.43 -0.25 0.25zm0.25 -1.26l0 -0.45c0.12,0 -0.05,0.1 -0.25,0.19l0.25 0.27zm0.97 0.5l-0.47 0 0.17 0.15c-0.19,0.17 0.3,-0.25 0.3,-0.15zm-1.47 0l-0.44 0 0.29 0.17 0.15 -0.17zm0.5 -0.5l0.19 -0.17 -0.19 -0.28 0 0.45zm-0.5 0.5l-0.15 -0.15 -0.29 0.15 0.44 0zm1 0l0.47 0c0,0.08 -0.48,-0.33 -0.3,-0.15l-0.17 0.15zm-1192.92 -477.79l-0.17 0.17 0.17 0.15 0.27 -0.15 -0.44 0 0.44 0 -0.27 -0.17zm-0.67 0.67l0 0.44 -0.17 -0.27 0.17 -0.17 0 0.44 0.18 -0.27 -0.18 -0.17zm0 -1l0 -0.44 -0.17 0.27 0.17 0.17zm-0.5 0.5l-0.13 0.15 -0.3 -0.15 0.43 0 -0.43 0 0.27 -0.17 0.17 0.17zm0.5 -0.5l0.17 -0.15 -0.17 -0.29 0 0.44zm633.34 1784.59l402.6 0 0 -546.47 -749.98 -749.98 347.38 1296.44z"/>
   <path class="fil0" d="M3935.82 1570.46l-0.17 -0.28 0.17 -0.15 0 0.43zm652.11 554.05l-0.17 -0.28 0.17 -0.15 0 0.43zm0.5 -0.94l0.19 -0.17 0.27 0.17 -0.45 0zm179.03 -180.02c-46.07,-46.08 -109.57,-74.59 -179.53,-74.59 -69.95,0 -133.44,28.53 -179.52,74.59l-0.5 0c-46.07,46.06 -74.56,109.73 -74.56,180.02 0,69.95 28.5,133.44 74.56,179.52l0.5 0.5c19.36,19.35 41.81,35.61 66.52,47.95l0 101.33 -274.8 180.85 0 341.92 -149.24 149.24 0 -1328.44c23.89,-12.2 45.63,-28.09 64.46,-46.91l0.47 -0.5c46.07,-46.07 74.59,-109.56 74.59,-179.52 0,-69.95 -28.52,-133.44 -74.59,-179.53l-0.47 -0.5c-46.11,-46.06 -109.6,-74.57 -179.53,-74.57 -69.95,0 -133.44,28.51 -179.52,74.57l-0.5 0.5c-46.06,46.09 -74.59,109.58 -74.59,179.53 0,69.95 28.53,133.44 74.59,179.52l0.5 0.5c19.61,19.61 42.36,36.03 67.46,48.42l0 1554.08 -0.07 0.05 0.07 0.05 0 1310.16 1829.99 0 470.76 -1756.9c65.44,-2.91 124.57,-30.76 168.13,-74.32l0.5 -0.5c46.06,-46.07 74.57,-109.56 74.57,-179.52 0,-69.93 -28.5,-133.44 -74.57,-179.52l-0.5 -0.5c-46.07,-46.08 -109.56,-74.59 -179.52,-74.59 -69.97,0 -133.44,28.53 -179.53,74.59l-0.49 0.5c-46.07,46.08 -74.61,109.58 -74.61,179.52 0,39.35 9.03,76.65 25.11,109.95l-1000.31 1000.35 -33.29 80.3 0 593.5 -289.78 0 0 -786.12 278.9 -278.89c25.42,8.52 52.61,13.14 80.9,13.14 69.92,0 133.41,-28.51 179.52,-74.59l0.5 -0.5c46.04,-46.07 74.56,-109.58 74.56,-179.52 0,-69.95 -28.48,-133.44 -74.56,-179.53l-0.5 -0.48c-46.11,-46.08 -109.6,-74.59 -179.52,-74.59 -70.29,0 -133.94,28.51 -180.02,74.59l0 0.48c-46.07,46.09 -74.6,109.58 -74.6,179.53 0,28.21 4.65,55.35 13.22,80.75l-345.56 345.54 0 880.19 -282.18 0 0 -989.05 373.88 -373.87 2.51 0 0 -317.26 274.8 -180.86 0 -223.15c24.26,-12.27 46.33,-28.31 65.38,-47.38l0.5 -0.5c46.06,-46.07 74.59,-109.56 74.59,-179.52 0,-70.28 -28.53,-133.96 -74.59,-180.02l-0.5 0zm-179.53 179.06l0 0.43 -0.13 -0.15c-0.17,0.17 0.23,-0.28 0.13,-0.28zm-0.74 1.2c-0.08,-0.19 -0.18,-0.37 -0.18,-0.25l0.42 0 -0.24 0.25zm-0.18 -0.25l0.28 -0.17 0.13 0.17 -0.42 0zm1.1 0.65l-0.18 0.28 0 -0.43 0.18 0.15zm0.77 -0.65l-0.45 0 0.28 0.25c0.07,-0.19 0.17,-0.37 0.17,-0.25zm-0.95 -0.95c-0.09,0 0.33,0.45 0.18,0.28l-0.18 0.15 0 -0.43zm-651.46 -553.26l0.3 0.17 -0.44 0 0.13 0.15 0.3 -0.15 -0.44 0 0.13 -0.17zm-0.65 -0.79l0 0.45 0.17 -0.17 -0.17 -0.28zm-0.67 1.1l-0.28 -0.15 0.45 0 -0.17 0.15zm0.17 -0.15l-0.17 -0.17 -0.28 0.17 0.45 0zm0.5 0.5l0.17 0.15 -0.17 0.28 0 -0.43zm-0.17 -1.17l0.17 -0.28 0 0.45 -0.17 -0.17zm984.61 1560.58c-0.19,0.1 -0.35,0.18 -0.24,0.18l0 -0.43 -0.19 0.17 0.19 0.27 0 -0.43 0.24 0.25zm-0.24 -1.26l0 -0.45c-0.12,0 0.05,0.1 0.24,0.19l-0.24 0.27zm-0.97 0.5l0.47 0 -0.19 0.15c0.2,0.17 -0.29,-0.25 -0.29,-0.15zm1.48 0l0.43 0 -0.3 0.17 -0.13 -0.17zm-0.5 -0.5l-0.19 -0.17 0.19 -0.28 0 0.45zm0.5 0.5l0.13 -0.15 0.3 0.15 -0.43 0zm-1 0l-0.47 0c0,0.08 0.49,-0.33 0.29,-0.15l0.19 0.15zm1192.91 -477.79l0.18 0.17 -0.17 0.15 -0.3 -0.15 0.47 0 -0.47 0 0.29 -0.17zm0.69 0.67l0 0.44 0.17 -0.27 -0.17 -0.17 0 0.44 -0.19 -0.27 0.19 -0.17zm0 -1l0 -0.44 0.17 0.27 -0.17 0.17zm0.48 0.5l0.15 0.15 0.29 -0.15 -0.42 0 0.42 0 -0.27 -0.17 -0.17 0.17zm-0.48 -0.5l-0.17 -0.15 0.17 -0.29 0 0.44zm-633.35 1784.59l-402.59 0 0 -546.47 749.94 -749.98 -347.35 1296.44z"/>
   <path class="fil1" d="M188.91 5765.35l360.19 0c85.23,0 151.56,21.49 198.99,64.48 47.43,42.98 71.15,103.02 71.15,180.09 0,77.07 -23.72,137.11 -71.15,180.09 -47.43,42.99 -113.76,64.48 -198.99,64.48l-186.76 0 0 294.6 -173.43 0 0 -783.74zm337.95 357.96c86.71,0 130.07,-37.43 130.07,-112.28 0,-38.54 -10.75,-67.07 -32.24,-85.6 -21.49,-18.53 -54.1,-27.79 -97.83,-27.79l-164.53 0 0 225.67 164.53 0z"/>
   <path id="1" class="fil1" d="M1299.49 6559.09c-79.3,0 -148.41,-16.67 -207.33,-50.02 -58.92,-33.35 -104.13,-80.41 -135.63,-141.19 -31.5,-60.78 -47.25,-131.18 -47.25,-211.22 0,-80.04 15.75,-150.45 47.25,-211.22 31.5,-60.77 76.71,-107.65 135.63,-140.63 58.92,-32.98 128.03,-49.47 207.33,-49.47 51.88,0 101.54,7.96 148.97,23.9 47.43,15.93 86.34,37.98 116.73,66.15l-55.59 123.4c-34.09,-25.94 -68,-44.84 -101.72,-56.7 -33.72,-11.86 -68.74,-17.79 -105.06,-17.79 -69.67,0 -123.21,22.23 -160.64,66.7 -37.43,44.47 -56.14,109.69 -56.14,195.66 0,85.97 18.72,151.38 56.14,196.22 37.43,44.84 90.97,67.26 160.64,67.26 36.32,0 71.33,-5.93 105.06,-17.79 33.72,-11.86 67.63,-30.76 101.72,-56.7l55.59 123.4c-30.39,28.17 -69.3,50.21 -116.73,66.15 -47.43,15.94 -97.09,23.9 -148.97,23.9z"/>
   <path id="2" class="fil1" d="M2188.85 6143.32c45.21,13.34 80.22,36.5 105.05,69.48 24.83,32.98 37.24,73.56 37.24,121.73 0,65.96 -24.27,118.21 -72.81,156.75 -48.55,38.54 -115.43,57.81 -200.66,57.81l-372.42 0 0 -783.74 361.3 0c81.52,0 146.19,18.16 193.99,54.47 47.8,36.31 71.7,85.97 71.7,148.97 0,40.76 -10.93,76.52 -32.8,107.28 -21.87,30.76 -52.07,53.17 -90.6,67.26zm-334.62 -58.92l163.42 0c44.46,0 77.26,-7.59 98.38,-22.79 21.12,-15.19 31.69,-38.35 31.69,-69.48 0,-32.61 -10.56,-56.51 -31.69,-71.7 -21.12,-15.19 -53.92,-22.79 -98.38,-22.79l-163.42 0 0 186.76zm183.43 332.4c45.95,0 79.3,-7.78 100.05,-23.35 20.75,-15.56 31.13,-40.76 31.13,-75.59 0,-34.83 -10.38,-60.4 -31.13,-76.7 -20.75,-16.31 -54.1,-24.46 -100.05,-24.46l-183.43 0 0 200.11 183.43 0z"/>
   <polygon class="fil1" points="3277.24,6550.21 3159.4,6550.21 2755.85,6177.8 2755.85,6550.21 2664.69,6550.21 2664.69,5766.47 2755.85,5766.47 2755.85,6126.66 3140.5,5766.47 3256.11,5766.47 2847.01,6147.78 "/>
   <polygon id="1" class="fil1" points="3362.83,6550.21 3362.83,5766.47 3454,5766.47 3454,6550.21 "/>
   <polygon id="2" class="fil1" points="4189.94,5766.47 4275.54,5766.47 4275.54,6550.21 4205.5,6550.21 3733.03,5919.88 3733.03,6550.21 3647.43,6550.21 3647.43,5766.47 3717.46,5766.47 4189.94,6396.8 "/>
   <path id="3" class="fil1" d="M5089.3 6142.22l0 362.41c-31.13,16.3 -71.7,29.46 -121.73,39.46 -50.03,10 -100.61,15.01 -151.74,15.01 -77.82,0 -144.89,-15.93 -201.22,-47.8 -56.33,-31.87 -99.5,-77.82 -129.51,-137.85 -30.02,-60.03 -45.02,-131.92 -45.02,-215.67 0,-83 14.82,-154.52 44.46,-214.56 29.65,-60.03 72.26,-105.98 127.85,-137.85 55.58,-31.87 121.17,-47.8 196.77,-47.8 54.85,0 105.24,8.34 151.19,25.02 45.95,16.67 85.23,41.31 117.84,73.93l-34.46 70.04c-37.8,-32.61 -75.04,-55.95 -111.72,-70.04 -36.69,-14.08 -77.63,-21.12 -122.84,-21.12 -88.19,0 -156.01,27.79 -203.44,83.38 -47.43,55.58 -71.15,135.26 -71.15,239.01 0,105.98 24.09,186.58 72.26,241.8 48.17,55.21 118.58,82.82 211.22,82.82 67.44,0 130.07,-10 187.88,-30.02l0 -239.01 -194.55 0 0 -71.15 277.93 0z"/>
   <path id="4" class="fil1" d="M5273.83 5766.47l263.47 0c125.25,0 222.15,33.91 290.71,101.72 68.55,67.81 102.83,164.35 102.83,289.59 0,125.25 -34.28,221.97 -102.83,290.15 -68.56,68.19 -165.46,102.28 -290.71,102.28l-263.47 0 0 -783.74zm257.91 705.93c203.07,0 304.6,-104.87 304.6,-314.61 0,-209 -101.53,-313.5 -304.6,-313.5l-166.75 0 0 628.11 166.75 0z"/>
   <path id="5" class="fil1" d="M6423.32 6559.11c-72.63,0 -135.81,-16.3 -189.54,-48.91 -53.73,-32.61 -95.05,-78.93 -123.95,-138.96 -28.91,-60.03 -43.35,-130.81 -43.35,-212.33 0,-82.27 14.26,-153.6 42.8,-214 28.53,-60.41 69.67,-106.72 123.4,-138.96 53.73,-32.24 117.28,-48.36 190.65,-48.36 73.37,0 136.93,16.12 190.66,48.36 53.73,32.24 94.86,78.56 123.4,138.96 28.53,60.4 42.8,131.36 42.8,212.89 0,81.53 -14.45,152.49 -43.35,212.89 -28.91,60.4 -70.22,106.91 -123.96,139.52 -53.73,32.61 -116.91,48.91 -189.54,48.91zm0 -77.82c83.01,0 147.67,-27.98 193.99,-83.93 46.32,-55.95 69.48,-135.81 69.48,-239.57 0,-103.76 -22.98,-183.43 -68.93,-239.01 -45.95,-55.59 -110.8,-83.38 -194.55,-83.38 -83,0 -147.67,27.98 -193.99,83.93 -46.32,55.96 -69.48,135.44 -69.48,238.46 0,103.02 23.16,182.69 69.48,239.02 46.32,56.33 110.98,84.49 193.99,84.49z"/>
   <polygon id="6" class="fil1" points="7610.61,5766.47 7685.1,5766.47 7685.1,6550.21 7601.72,6550.21 7602.83,5943.23 7348.25,6425.7 7283.78,6425.7 7028.09,5947.67 7029.2,6550.21 6944.71,6550.21 6944.71,5766.47 7020.3,5766.47 7317.13,6334.54 "/>
   <polygon class="fil0" points="2267.8,4837.3 5606.85,4837.3 5546,5064.44 2328.66,5064.44 "/>
  </g>
 </g>
</svg>
